# xmcd CD database file
#
# Track frame offsets:
#	150
#	8708
#	28448
#
# Disc length: 640 seconds
#
# Revision: 0
# Processed by: cddbd v1.5.1PL0 Copyright (c) Steve Scherf et al.
# Submitted via: CDex 1.51
#
DISCID=1d027e03
DTITLE=KOKIA - TOKYO TOYOTA ORIGINAL CD Smile and Heart
DYEAR=2004
DGENRE=JPop
TTITLE0=message voice from KOKIA
TTITLE1=Bombom!! ドライブで決めよう
TTITLE2=Bombom!! ドライブで決めよう (Instrumental)
EXTD=YEAR: 2004
EXTT0=
EXTT1=
EXTT2=
PLAYORDER=
